<svg xmlns="http://www.w3.org/2000/svg" viewBox="0 0 339.31 293.17"><defs><style>.cls-1,.cls-18,.cls-19,.cls-20{fill:#ec9381;}.cls-2{fill:#fffffe;}.cls-13,.cls-3{fill:#575a90;}.cls-4,.cls-8{fill:#1b1f44;}.cls-11,.cls-14,.cls-16,.cls-17,.cls-22,.cls-23,.cls-25,.cls-26,.cls-5,.cls-6,.cls-7,.cls-9{fill:none;}.cls-16,.cls-26,.cls-5{stroke:#a34954;}.cls-11,.cls-13,.cls-14,.cls-15,.cls-16,.cls-17,.cls-18,.cls-19,.cls-20,.cls-21,.cls-22,.cls-23,.cls-25,.cls-26,.cls-5,.cls-6,.cls-7,.cls-8,.cls-9{stroke-miterlimit:10;}.cls-6{stroke:#111028;}.cls-11,.cls-14,.cls-16,.cls-18,.cls-19,.cls-22,.cls-25,.cls-26,.cls-6,.cls-7,.cls-9{stroke-linecap:round;}.cls-7{stroke:#8085b2;}.cls-8{stroke:#b8ced5;}.cls-21,.cls-9{stroke:#1b1f44;}.cls-26,.cls-9{stroke-width:2px;}.cls-10,.cls-15,.cls-21{fill:#a34954;}.cls-11{stroke:#b8cfd5;}.cls-12{fill:#7f83bf;}.cls-13{stroke:#33343f;}.cls-14,.cls-19{stroke:#eab5a0;}.cls-15{stroke:#bc617d;}.cls-17{stroke:#fff;}.cls-18,.cls-20,.cls-23,.cls-25{stroke:#bb6363;}.cls-22{stroke:#603913;}.cls-24{fill:#bb6363;}</style></defs><g id="Layer_2" data-name="Layer 2"><g id="Lady1"><g id="Foot-Right"><polyline id="Ankle" class="cls-1" points="296.2 261.72 323.89 261.72 319.29 283.86 292.9 283.86"/><path id="Sole" class="cls-2" d="M335.48,226.6s2.89-.64,3.73.54-3,34.57-3.63,40.54a1,1,0,0,1-1,.9h-.07a1,1,0,0,0-1,.72l-.8,2.56a1,1,0,0,0,.62,1.25l.27.1a1,1,0,0,1,.66,1.1l-2.35,14.94a1.12,1.12,0,0,1-.23.51c-2.36,2.69-6.24,1-6.24,1"/><path id="Shoe" class="cls-3" d="M336.83,227.53l-9.18,62.81a1.94,1.94,0,0,1-1.72,1.65c-13.12,1.33-14.85-4.59-15-7.1a1.94,1.94,0,0,1,.63-1.55c1.27-1.14,4.14-4.51,4.44-11.89.26-6.46-2.14-10.09-3.53-11.64a1.92,1.92,0,0,1-.28-2.2l14.07-26.74c3-6,6.95-6,9.15-5.49A1.92,1.92,0,0,1,336.83,227.53Z"/></g><g id="Leg-Right"><path class="cls-4" d="M16.67,195s-36.23,68.63,18.19,88.88c29.91,11.13,237.07,7,266.85,5.17a4.09,4.09,0,0,0,3.82-3.78l1.78-24.05a7.33,7.33,0,0,0-5.92-7.74L182.72,232.68,180,232.2l-1.1-41.77"/><path class="cls-5" d="M199.06,235.54l-32.19-5.47c-17.66-5.08-27.06-12.58-27.06-12.58"/><path class="cls-6" d="M16.75,194.78s-36.23,68.63,18.18,88.88c29.92,11.13,237.08,7,266.85,5.17"/></g><g id="Foot-Left"><polyline id="Ankle-2" data-name="Ankle" class="cls-1" points="198.72 251.96 198.2 279.64 176.15 274.62 176.65 248.24"/><path id="Sole-2" data-name="Sole" class="cls-2" d="M235.87,288.41s1,2.8-.12,3.77-34.68,1-40.68,1a1,1,0,0,1-1-.93v-.06a1,1,0,0,0-.83-.91l-2.64-.5a1,1,0,0,0-1.17.76l-.06.27a1,1,0,0,1-1,.78l-15.11-.64a1,1,0,0,1-.53-.17c-2.94-2-1.75-6.09-1.75-6.09"/><path id="Shoe-2" data-name="Shoe" class="cls-3" d="M235.1,289.86l-63.45-2a1.94,1.94,0,0,1-1.83-1.52c-2.81-12.88,2.88-15.28,5.35-15.71a1.86,1.86,0,0,1,1.61.45c1.28,1.13,4.95,3.59,12.32,3.05,6.45-.47,9.78-3.26,11.17-4.82a1.93,1.93,0,0,1,2.15-.53l28.16,11c6.26,2.32,6.78,6.23,6.49,8.48A1.91,1.91,0,0,1,235.1,289.86Z"/><path id="Shoe-3" data-name="Shoe" class="cls-7" d="M202.09,269.3l28.17,9.91c6.25,2.31,6.78,6.23,6.49,8.47a1.93,1.93,0,0,1-2,1.67"/></g><g id="Leg-Left"><path class="cls-8" d="M164.51,204l4.62,51a7.36,7.36,0,0,0,8.05,6.66l20.12-2a7.36,7.36,0,0,0,6.49-6L220,167.63a3.63,3.63,0,0,1,.1-.45c7.61-28.36-29.66-30.48-37.62-30.61a7.15,7.15,0,0,0-2.74.49c-60.14,23.21-161,65-161,65"/><path class="cls-9" d="M164.53,204.24l4.62,50.84a6.88,6.88,0,0,0,7.73,6.61l20.11-2a7.34,7.34,0,0,0,6.5-5.93"/></g><g id="Torso"><path class="cls-10" d="M9.94,176.69v21.15c0,2.89,2.11,4.88,4.21,6.15a15.49,15.49,0,0,0,6.37,2.07c11.85,1.26,69.25,6.73,89.09-4.09,51.65-28.18,44.15-75.72,44.15-75.72"/><path class="cls-10" d="M6.46,185.48C4.75,180.42-6,147,13.06,117,37.94,77.68,89.78,82.12,95.68,82.7c6.92.68,19.86,2.13,33,11.18a65.37,65.37,0,0,1,25.1,34.81"/></g><g id="Hand"><g id="Hair"><path class="cls-4" d="M146,111.91s7.63-16.61,3.05-31.77c-2.14-7.08-6.32-15.24-15.39-31.15-7-12.23-3.09-14.72-9-25.65-2-3.81-10.45-17.85-26.2-22.17C88.83-1.48,79.4,2,76,2.27c-4.23.31-14.71-.19-22.72,6.05C38.64,19.71,30.66,46.87,29.7,48.1S7.62,62,1.78,80.32,12.34,118.23,13.06,117c7.54-13.37,29.4-8.86,48.36-19C73.22,91.56,69.3,89.27,78,85.72c21.26-8.65,53.45,7,63.51,20C143.73,108.56,146,111.91,146,111.91Z"/><path class="cls-11" d="M146.41,111.57s7.25-15.95,2.67-31.12c-2.14-7.08-6.32-15.23-15.39-31.15-7-12.22-3.09-14.72-9-25.64-2-3.82-10.45-17.86-26.2-22.17C88.83-1.17,79.4,2.34,76,2.59"/><path class="cls-6" d="M53.26,9C38.64,20.41,30.66,47.58,29.7,48.81S7.62,62.74,1.78,81,12,117.84,12.67,116.57"/></g><path class="cls-1" d="M196.51,58.45c-6.2,3.6-8.73,7.53-9.89,10.44-1.89,4.73-.26,7-2.75,13.67-1.87,5-3.8,6.52-3,8.59,1.19,2.91,6.57,3.91,10.37,3.23,9.6-1.71,13.22-14.85,13.4-15.53"/><path class="cls-12" d="M197.17,30.44l-7.26,46.44a3.61,3.61,0,0,0,3.66,4.1h17.17a3.67,3.67,0,0,0,3.69-3.16l5.62-46.43a3.62,3.62,0,0,0-3.68-4H200.84A3.66,3.66,0,0,0,197.17,30.44Z"/><path class="cls-13" d="M198.91,31.47,192.06,76.9a3.49,3.49,0,0,0,3.46,4H211.7a3.49,3.49,0,0,0,3.47-3.09l5.3-45.42A3.5,3.5,0,0,0,217,28.49H202.36A3.49,3.49,0,0,0,198.91,31.47Z"/><path class="cls-1" d="M193.57,81c.19-.47,12.69-5.42,11.85-10.92-.68-4.5-4.56-9.48-4.56-11.61,0-.21.8-1.93,1.91-1.21,2.28,1.46,6,5.55,5.44,4.32-1.88-4-8.33-8.33-8.54-10.39,0-.32,1.08-2.29,1.86-1.86,9.69,5.39,9.75,10.93,9.41,9.14-.94-4.89-4.21-5.28-6.8-8.86-.89-1.24,1.32-2.82,3.3-1.41,6.46,4.64,6.18,7.86,7,7.45,1.34-.66-2.72-4.58-4.12-6.46-.89-1.19.81-1.39.9-1.42,3.61-1.21,14.42,13.17,11.61,22.86-1.27,4.35-5.58,9.5-11,11.72-3.89,1.6-6.85,1.5-9.55,4.62-1.63,1.89-3,8.82-3.22,10.38l-9.83-2.61"/><path class="cls-14" d="M211.74,48.35c3.62-1.21,13.9,12.54,11.09,22.23-1.27,4.35-5.58,9.51-11,11.73-3.89,1.59-6.85,1.49-9.55,4.61-1.63,1.89-3,8.82-3.22,10.39"/></g><g id="Arm-Left"><path class="cls-15" d="M118.4,170.64,150,193.93c8.22,6,19.86,5,26.5-2.71a23.06,23.06,0,0,0,4.79-9.16l6.13-23.38,15.33-58.51c-.5-6.65-13.94-11-21.48-13a6.62,6.62,0,0,0-7.42,3.15l-27.93,49.91"/><line class="cls-16" x1="182.78" y1="176.44" x2="188.91" y2="153.07"/></g><g id="Earphones"><path class="cls-17" d="M214.58,27.19c.1-4.8,7.7-5.22,10.34-1.1,5.94,9.27-4.44,8.33-15.27,25.34-6.81,10.72-9.28,16.08-10.82,22.52-3.84,16,2.78,19.16-1.56,30.28-6.1,15.62-18.46,11.25-32.43,26.38-20.24,21.93-8.9,47.24-29.69,60-1.49.91-11.17,6.85-17.85,3.22-6.11-3.33-3.64-11.39-8.79-25.84-.77-2.15-1-3.26-1.47-4.49a72.22,72.22,0,0,0-3.35-7.67,70,70,0,0,0-7.83-12A101.29,101.29,0,0,1,75.53,114.4c-5.66-12.51-7.84-31.24-6.62-41.92,2.84-24.85,31-21.85,39.05-18.29,9.7,4.26,4.44,36-9.9,71.88-3.26,8.15-1.54,17.22-1.53,17.28h0c.1.88.08,1.26,0,1.33"/></g><g id="Head"><path class="cls-18" d="M72.22,89.94c1.65-4.17,6.61-11.77-.47-21l25,6.82c1.1.18,1.28,13.92,1.28,13.92-8,6.41-24.73.74-24.73.74"/><path class="cls-19" d="M96.78,76c.9.16,1.19,9.52,1.26,12.81a2.09,2.09,0,0,1-1,1.83c-8.32,5.25-24.83-.74-24.83-.74"/><path class="cls-20" d="M91.83,23c-3,1.26-1.25,4.75-6.22,11.72-2.55,3.57-5.84,8.18-11.55,10.44-2.58,1-4.45,1.09-5.68,2.93-1.43,2.14-.21,4.74,0,7.88C70,80.69,88.66,80.66,89.82,80.69c.62,0,11.79.1,18.32-8.25,4.46-5.7,4.36-12.28,4.21-22.17-.07-4.92-.11-7.57-1.28-11C107.59,29.07,97.08,20.78,91.83,23Z"/><path class="cls-14" d="M89.82,80.69c.62,0,11.79.1,18.32-8.25,4.46-5.7,4.36-12.28,4.21-22.17-.07-4.92-.11-7.57-1.28-11-3.48-10.21-14-18.5-19.24-16.3"/></g><g id="Arm-Right"><path class="cls-1" d="M57,93.24c6.39-3.61,7.18-8.79,7.7-11.46,1-5.32-1.09-6.93-.37-13.46C65,62.72,67.28,60.19,66.8,54c-.19-2.41-1.57-3.17-2.45-3.21-1.6-.06-2.48,8.89-3.48,7.78-1.65-1.82,3.76-10.89,1.93-13.46,0,0-1.11-1.51-2.2-.27-5,5.59-2.57,8.88-4.67,9.34-.74.16-.19-3.84,2.1-10.17,1.07-2.94-3-2.1-3.3-1.55-2.48,4.11-4.1,11.46-4.3,11.45s-2.93,2.38,1.65-9.62c1-2.69-2.07-2.36-2.38-2.11-9.8,7.9-6.81,25.56-9.9,23.09-1.91-1.54-4.12-1.82-5.13-1.1-1.31.93-.29,6.09,9.16,23.81"/><path class="cls-21" d="M5.36,151.77,34.74,87.2a6.59,6.59,0,0,1,7.12-3.76C49.54,84.76,63.3,88,64.35,94.61L49.79,178a23,23,0,0,1-22.62,19.09c-19.11,0-21.81-16.53-21.81-16.53"/><path class="cls-22" d="M77.84,48.35h0a22.65,22.65,0,0,0,10.67.33l1.54-.33"/><path class="cls-22" d="M98.06,47.53h0a17,17,0,0,0,10.67.44l1.55-.44"/><path class="cls-23" d="M95.5,48.26c-.9,2.58,2.12,5.63,2.56,6.78a3.09,3.09,0,0,1-1,3.11,4.14,4.14,0,0,1-5,.09"/><circle class="cls-24" cx="77.84" cy="56.55" r="4.9"/><path class="cls-24" d="M112.35,56.36c0,2.71.59,4.9-2.12,4.9s-4.47-2.19-4.47-4.9,1.76-4.9,4.47-4.9S112.35,53.66,112.35,56.36Z"/><path class="cls-25" d="M90.05,63.83l0,0a10.83,10.83,0,0,0,9.92-.39l.16-.09"/><line class="cls-26" x1="59.12" y1="124.58" x2="52.51" y2="162.45"/></g></g></g></svg>